# xmcd
#
# Track frame offsets: 
#        150
#        19830
#        36485
#        53672
#        67025
#        87597
#        108680
#        127105
#        149937
#        168080
#        180865
#
# Disc length: 3036 seconds
#
# Revision: 4
# Processed by: cddbd v1.5.2PL0 Copyright (c) Steve Scherf et al.
# Submitted via: ExactAudioCopy v0.95b4
#
DISCID=a30bda0b
DTITLE=Abair, Mindi - Come as You Are
DYEAR=2004
DGENRE=Jazz
TTITLE0=Come as You Are
TTITLE1=Shine
TTITLE2=Every Time
TTITLE3=Head Over Heels
TTITLE4=Make a Wish
TTITLE5=Sticks and Stones
TTITLE6=I Can Remember
TTITLE7=New Shoes
TTITLE8=High Five
TTITLE9=You'll Never Know
TTITLE10=Cyan
EXTD=This is a Jazz album, couldn't change the genre
EXTT0=
EXTT1=
EXTT2=
EXTT3=
EXTT4=
EXTT5=
EXTT6=
EXTT7=
EXTT8=
EXTT9=
EXTT10=
PLAYORDER=
